<?xml version="1.0" encoding="UTF-8"?>
<svg id="Layer_1" data-name="Layer 1" xmlns="http://www.w3.org/2000/svg" viewBox="0 0 512 512">
  <defs>
    <style>
      .cls-1 {
        fill: #d0d2d3;
      }

      .cls-1, .cls-2, .cls-3, .cls-4 {
        stroke-width: 0px;
      }

      .cls-2 {
        fill: #fff;
      }

      .cls-3 {
        fill: #b4b4b5;
      }

      .cls-4 {
        fill: #231f20;
      }
    </style>
  </defs>
  <g>
    <path class="cls-2" d="m323.06,406.76c-14.11,0-30.07-4.52-42.68-12.09l-2.14-1.29,1.29-3.45c-2.85-1.29-5.58-2.72-8.15-4.26l-2.14-1.29,3.14-8.37c-6.78-2.07-13.29-4.92-18.99-8.35l-2.14-1.29,15.25-40.65c1.18-3.15,4.12-5.18,7.49-5.18,1.38,0,2.75.36,3.97,1.05,4.43,2.51,8.45,3.89,11.32,3.89.46,0,.99.03,1.57.07.52.03,1.08.07,1.62.07.23,0,.42,0,.57-.02l-4.66-73.19-54.9,110.81h-58.48c-4.21,0-7.72-3.29-7.98-7.49l-.1-1.51h-.92c-4.21,0-7.72-3.29-7.98-7.49l-.67-10.51h-16.85l-.04-.56-5.98,27.56h-58.89c-2.43,0-4.7-1.09-6.23-2.98-1.38-1.71-1.98-3.87-1.71-6.02h-1.06c-2.43,0-4.7-1.09-6.23-2.98-1.53-1.89-2.11-4.34-1.59-6.72l1.8-8.3h-11.98c-2.43,0-4.7-1.09-6.23-2.98-1.53-1.89-2.11-4.34-1.59-6.72l48.05-221.3h58.89c2.43,0,4.7,1.09,6.23,2.98,1.53,1.89,2.11,4.34,1.59,6.72l-1.8,8.3h11.99c2.43,0,4.7,1.09,6.23,2.98,1.38,1.71,1.98,3.87,1.71,6.02h1.06c2.43,0,4.7,1.09,6.23,2.98,1.53,1.89,2.11,4.34,1.59,6.72l-1.8,8.3h9.22c2.19,0,4.23.86,5.75,2.43,1.52,1.57,2.32,3.64,2.25,5.82l-.31,9.75h10.31c2.19,0,4.23.86,5.75,2.43,1.52,1.57,2.32,3.64,2.25,5.82l-.02.75h.44l10.82-27h114.04c2.16,0,4.19.85,5.71,2.39,1.52,1.54,2.33,3.58,2.29,5.75l-.17,9.86h10.17c2.16,0,4.19.85,5.71,2.39,1.52,1.54,2.33,3.58,2.29,5.75l-.02.86h1.31l10.74-27h56.91c2.77,0,5.31,1.4,6.78,3.75,1.47,2.35,1.63,5.24.42,7.73l-3.15,6.52h13.95c2.77,0,5.31,1.4,6.78,3.75,1,1.6,1.39,3.45,1.16,5.25h1.06c2.77,0,5.31,1.4,6.78,3.75,1.47,2.35,1.63,5.24.42,7.73l-79.79,164.84c-17.33,35.29-32.53,53.2-67.49,53.2Z"/>
    <path class="cls-2" d="m147.69,108.24c3.19,0,5.56,2.94,4.89,6.06l-2.59,11.94h15.71c3.19,0,5.56,2.94,4.89,6.06l-.64,2.94h4.75c3.19,0,5.56,2.94,4.89,6.06l-2.59,11.94h12.94c2.82,0,5.09,2.34,5,5.16l-.41,12.84h13.41c2.82,0,5.09,2.34,5,5.16l-.12,3.84h4.64c.31,0,.6.03.89.09l10.86-27.09h112.01c2.8,0,5.05,2.29,5,5.09l-.23,12.91h13.23c2.8,0,5.05,2.29,5,5.09l-.07,3.91h6.4l10.74-27h54.88c3.69,0,6.11,3.86,4.5,7.18l-5.24,10.82h18.74c3.69,0,6.11,3.86,4.5,7.18l-.88,1.82h5.38c3.69,0,6.11,3.86,4.5,7.18l-79.78,164.84c-18.14,36.93-33.04,51.51-64.79,51.51-12.63,0-28.18-3.88-41.14-11.66l1.42-3.78c-3.58-1.48-7.09-3.22-10.42-5.22l3.4-9.07c-7.32-1.94-14.71-4.91-21.4-8.93l14.37-38.31c.76-2.03,2.68-3.23,4.68-3.23.84,0,1.7.21,2.49.66,5.21,2.95,9.57,4.27,12.79,4.27.86,0,2.05.14,3.19.14,1.87,0,3.63-.38,3.61-2.41l-5.42-85.17-59.05,119.18h-56.62c-2.64,0-4.82-2.05-4.99-4.68l-.28-4.32h-3.73c-2.64,0-4.82-2.05-4.99-4.68l-.85-13.32h-16.85l-1.22-19.19-10.03,46.19h-56.48c-3.19,0-5.56-2.94-4.89-6.06l.64-2.94h-4.75c-3.19,0-5.56-2.94-4.89-6.06l2.59-11.94h-15.71c-3.19,0-5.56-2.94-4.89-6.06l47.54-218.94h56.48m137.17,63h1.34l-.15-2.39-1.18,2.39m-137.17-69h-61.31l-1.03,4.73-47.54,218.94c-.71,3.27.09,6.63,2.19,9.24,2.1,2.6,5.22,4.1,8.56,4.1h8.26l-1.01,4.67c-.71,3.27.09,6.63,2.19,9.24,1.71,2.12,4.09,3.5,6.71,3.94.31,1.83,1.08,3.57,2.29,5.06,2.1,2.6,5.22,4.1,8.56,4.1h61.31l1.03-4.73,4.84-22.27h11.78l.49,7.7c.33,5.15,4.2,9.3,9.13,10.14.89,5.22,5.45,9.16,10.84,9.16h60.34l1.65-3.34,49.11-99.11,3.74,58.71c-.18,0-.37-.01-.55-.01-1.1,0-4.26-.34-9.84-3.5-1.66-.94-3.55-1.44-5.45-1.44-4.56,0-8.7,2.86-10.3,7.13l-14.37,38.31-1.76,4.68,4.29,2.57c5.05,3.03,10.71,5.63,16.63,7.66l-1.16,3.09-1.76,4.68,4.29,2.57c1.89,1.13,3.87,2.21,5.92,3.22l-1.2,3.21,4.29,2.57c13.06,7.84,29.6,12.51,44.23,12.51,17.27,0,30.4-4.22,41.33-13.29,9.96-8.26,18.59-20.7,28.85-41.58l79.8-164.87c1.66-3.43,1.44-7.41-.58-10.64-1.69-2.7-4.4-4.49-7.47-5-.24-1.39-.75-2.75-1.53-4-2.02-3.23-5.51-5.16-9.32-5.16h-9.17l1.07-2.21c1.66-3.43,1.44-7.41-.58-10.64-2.02-3.23-5.51-5.16-9.32-5.16h-58.95l-1.5,3.78-7.51,18.87c-.34-.48-.72-.94-1.14-1.36-2.08-2.12-4.87-3.29-7.85-3.29h-7.12l.12-6.81c.05-2.97-1.07-5.78-3.15-7.9-2.08-2.12-4.87-3.29-7.85-3.29h-116.07l-1.51,3.77-7.27,18.15c-.17-.2-.34-.39-.52-.57-2.09-2.16-4.9-3.35-7.9-3.35h-7.22l.21-6.65c.1-3-1-5.85-3.09-8s-4.9-3.35-7.9-3.35h-5.5l1.01-4.67c.71-3.27-.09-6.63-2.19-9.24-1.71-2.12-4.09-3.5-6.71-3.94-.31-1.83-1.08-3.57-2.29-5.06-2.1-2.6-5.22-4.1-8.56-4.1h-8.26l1.01-4.67c.71-3.27-.09-6.63-2.19-9.24-2.1-2.6-5.22-4.1-8.56-4.1h0Z"/>
  </g>
  <g>
    <path class="cls-2" d="m323.06,405.26c-13.85,0-29.52-4.44-41.91-11.87l-1.07-.64,1.35-3.6c-3.26-1.42-6.38-3.01-9.28-4.75l-1.07-.64,3.27-8.71c-7.21-2.06-14.16-5.03-20.19-8.65l-1.07-.64,14.81-39.48c.96-2.56,3.35-4.21,6.09-4.21,1.12,0,2.24.3,3.23.85,5.96,3.37,9.85,4.08,12.06,4.08.43,0,.93.03,1.47.07.55.04,1.14.08,1.72.08,1.44,0,1.87-.27,1.98-.39.09-.09.13-.26.13-.51l-5.06-79.49-56.98,114.99h-57.55c-3.42,0-6.27-2.67-6.49-6.09l-.19-2.91h-2.33c-3.42,0-6.27-2.67-6.49-6.09l-.76-11.91h-16.85l-.63-9.87-8.01,36.87h-57.69c-1.98,0-3.82-.88-5.06-2.42-1.24-1.54-1.71-3.53-1.29-5.46l.24-1.12h-2.89c-1.98,0-3.82-.88-5.06-2.42-1.24-1.54-1.71-3.53-1.29-5.46l2.2-10.12h-13.85c-1.98,0-3.82-.88-5.06-2.42-1.24-1.54-1.71-3.53-1.29-5.46l47.8-220.12h57.69c1.98,0,3.82.88,5.06,2.42s1.71,3.53,1.29,5.46l-2.2,10.12h13.85c1.98,0,3.82.88,5.06,2.42s1.71,3.53,1.29,5.46l-.24,1.12h2.89c1.98,0,3.82.88,5.06,2.42s1.71,3.53,1.29,5.46l-2.2,10.12h11.08c1.78,0,3.43.7,4.67,1.98s1.88,2.96,1.83,4.73l-.36,11.29h11.86c1.78,0,3.43.7,4.67,1.98,1.24,1.27,1.88,2.95,1.83,4.73l-.07,2.29h3l10.82-27h113.02c1.76,0,3.41.69,4.64,1.94,1.23,1.25,1.89,2.91,1.86,4.67l-.2,11.39h11.7c1.76,0,3.41.69,4.64,1.94,1.23,1.25,1.89,2.91,1.86,4.67l-.04,2.39h3.86l10.74-27h55.89c2.25,0,4.31,1.14,5.51,3.05s1.33,4.26.34,6.28l-4.2,8.67h16.34c2.25,0,4.31,1.14,5.51,3.05,1.13,1.8,1.31,4,.49,5.95h3c2.25,0,4.31,1.14,5.51,3.05s1.33,4.26.34,6.28l-79.79,164.84c-17.06,34.73-31.97,52.35-66.14,52.35Z"/>
    <path class="cls-4" d="m147.69,108.24c3.19,0,5.56,2.94,4.89,6.06l-2.59,11.94h15.71c3.19,0,5.56,2.94,4.89,6.06l-.64,2.94h4.75c3.19,0,5.56,2.94,4.89,6.06l-2.59,11.94h12.94c2.82,0,5.09,2.34,5,5.16l-.41,12.84h13.41c2.82,0,5.09,2.34,5,5.16l-.12,3.84h4.64c.31,0,.6.03.89.09l10.86-27.09h112.01c2.8,0,5.05,2.29,5,5.09l-.23,12.91h13.23c2.8,0,5.05,2.29,5,5.09l-.07,3.91h6.4l10.74-27h54.88c3.69,0,6.11,3.86,4.5,7.18l-5.24,10.82h18.74c3.69,0,6.11,3.86,4.5,7.18l-.88,1.82h5.38c3.69,0,6.11,3.86,4.5,7.18l-79.78,164.84c-18.14,36.93-33.04,51.51-64.79,51.51-12.63,0-28.18-3.88-41.14-11.66l1.42-3.78c-3.58-1.48-7.09-3.22-10.42-5.22l3.4-9.07c-7.32-1.94-14.71-4.91-21.4-8.93l14.37-38.31c.76-2.03,2.68-3.23,4.68-3.23.84,0,1.7.21,2.49.66,5.21,2.95,9.57,4.27,12.79,4.27.86,0,2.05.14,3.19.14,1.87,0,3.63-.38,3.61-2.41l-5.42-85.17-59.05,119.18h-56.62c-2.64,0-4.82-2.05-4.99-4.68l-.28-4.32h-3.73c-2.64,0-4.82-2.05-4.99-4.68l-.85-13.32h-16.85l-1.22-19.19-10.03,46.19h-56.48c-3.19,0-5.56-2.94-4.89-6.06l.64-2.94h-4.75c-3.19,0-5.56-2.94-4.89-6.06l2.59-11.94h-15.71c-3.19,0-5.56-2.94-4.89-6.06l47.54-218.94h56.48m137.17,63h1.34l-.15-2.39-1.18,2.39m-137.17-66h-58.89l-.51,2.36-47.54,218.94c-.52,2.38.06,4.83,1.59,6.72,1.53,1.89,3.8,2.98,6.23,2.98h11.98l-1.8,8.3c-.52,2.38.06,4.83,1.59,6.72,1.53,1.89,3.8,2.98,6.23,2.98h1.06c-.27,2.15.33,4.31,1.71,6.02,1.53,1.89,3.8,2.98,6.23,2.98h58.89l.51-2.36,5.47-25.19.04.56h16.85l.67,10.51c.27,4.2,3.77,7.49,7.98,7.49h.92l.1,1.51c.27,4.2,3.77,7.49,7.98,7.49h58.48l.83-1.67,54.08-109.14,4.66,73.19c-.15.01-.34.02-.57.02-.51,0-1.08-.04-1.62-.07-.55-.04-1.07-.07-1.57-.07-2.87,0-6.89-1.38-11.32-3.89-1.21-.69-2.59-1.05-3.97-1.05-3.37,0-6.31,2.03-7.49,5.18l-14.37,38.31-.88,2.34,2.14,1.29c5.71,3.42,12.22,6.28,18.99,8.35l-2.26,6.03-.88,2.34,2.14,1.29c2.57,1.54,5.3,2.97,8.15,4.26l-.42,1.11-.88,2.34,2.14,1.29c12.62,7.57,28.57,12.09,42.68,12.09,34.96,0,50.16-17.91,67.49-53.19l79.79-164.86c1.21-2.49,1.05-5.39-.42-7.73-1.47-2.35-4.01-3.75-6.78-3.75h-1.06c.23-1.8-.16-3.65-1.16-5.25-1.47-2.35-4.01-3.75-6.78-3.75h-13.95l3.15-6.51c1.21-2.49,1.05-5.39-.42-7.73-1.47-2.35-4.01-3.75-6.78-3.75h-56.91l-.75,1.89-9.99,25.11h-1.31l.02-.86c.04-2.16-.78-4.2-2.29-5.75-1.52-1.54-3.54-2.39-5.71-2.39h-10.18l.17-9.86c.04-2.16-.78-4.2-2.29-5.75-1.52-1.54-3.54-2.39-5.71-2.39h-114.04l-.76,1.88-10.06,25.12h-.44l.02-.75c.07-2.18-.73-4.25-2.25-5.82-1.52-1.57-3.56-2.43-5.75-2.43h-10.31l.31-9.74c.07-2.18-.73-4.25-2.25-5.82-1.52-1.57-3.56-2.43-5.75-2.43h-9.22l1.8-8.3c.52-2.38-.06-4.83-1.59-6.72-1.53-1.89-3.8-2.98-6.23-2.98h-1.06c.27-2.15-.33-4.31-1.71-6.02-1.53-1.89-3.8-2.98-6.23-2.98h-11.98l1.8-8.3c.52-2.38-.06-4.83-1.59-6.72-1.53-1.89-3.8-2.98-6.23-2.98h0Z"/>
  </g>
  <g>
    <g>
      <path class="cls-1" d="m75.56,360.99c-1.75,0-3.38-.78-4.48-2.14-1.1-1.36-1.51-3.12-1.14-4.83l47.67-219.53h57.08c1.75,0,3.38.78,4.48,2.14,1.1,1.36,1.51,3.12,1.14,4.83l-47.67,219.53h-57.08Z"/>
      <path class="cls-4" d="m174.69,135.24c3.19,0,5.56,2.94,4.89,6.06l-47.54,218.94h-56.48c-3.19,0-5.56-2.94-4.89-6.06l47.54-218.94h56.48m0-1.5h-57.69l-.26,1.18-47.54,218.94c-.42,1.93.05,3.92,1.29,5.46,1.24,1.54,3.08,2.42,5.06,2.42h57.69l.26-1.18,47.54-218.94c.42-1.93-.05-3.92-1.29-5.46-1.24-1.54-3.08-2.42-5.06-2.42h0Z"/>
    </g>
    <g>
      <path class="cls-1" d="m174.51,360.99c-2.76,0-5.06-2.16-5.24-4.92l-11.26-176.58h59.43c1.43,0,2.77.57,3.77,1.6,1,1.03,1.52,2.39,1.48,3.82l-2.67,83.56,35.66-88.98h66.31l-89.93,181.5h-57.55Z"/>
      <path class="cls-4" d="m320.78,180.24l-89.18,180h-57.09c-2.37,0-4.34-1.84-4.49-4.21l-11.21-175.79h58.63c2.54,0,4.58,2.1,4.5,4.64l-2.8,87.81,37.05-92.46h64.59m2.42-1.5h-68.03l-.38.94-33.89,84.56,2.53-79.32c.05-1.64-.55-3.19-1.69-4.37-1.14-1.18-2.67-1.83-4.31-1.83h-60.23l.1,1.6,11.21,175.79c.2,3.15,2.83,5.62,5.99,5.62h58.02l.41-.83,89.18-180,1.07-2.17h0Z"/>
    </g>
    <g>
      <path class="cls-1" d="m323.06,404.51c-13.72,0-29.25-4.4-41.53-11.76l-.54-.32,14.8-39.47c.76-2.03,2.74-3.39,4.91-3.39.91,0,1.8.24,2.59.7,6.38,3.7,10.56,4.48,12.95,4.48.41,0,.9.03,1.42.07.56.04,1.17.08,1.77.08h0c1.29,0,2.11-.2,2.52-.61.24-.24.35-.58.35-1.05l-11.06-173.75h62.79l-1.56,88.66,35.28-88.66h56.18c1.82,0,3.48.92,4.45,2.46.97,1.54,1.07,3.44.28,5.08l-80.13,165.56c-16.92,34.44-31.69,51.93-65.47,51.93Z"/>
      <path class="cls-4" d="m463.94,180.24c3.32,0,5.5,3.47,4.05,6.46l-80.13,165.56c-18.14,36.93-33.04,51.51-64.79,51.51-12.63,0-28.18-3.88-41.14-11.66l14.58-38.88c.68-1.82,2.41-2.91,4.21-2.91.75,0,1.51.19,2.22.6,5.45,3.16,10,4.58,13.33,4.58.86,0,2.05.14,3.19.14,1.87,0,3.63-.38,3.61-2.41l-11.01-172.99h61.23l-1.62,92,36.61-92h55.67m0-1.5h-56.69l-.38.95-33.57,84.37,1.48-83.79.03-1.53h-64.35l.1,1.6,11.01,172.94c0,.23-.05.39-.13.48-.12.12-.54.39-1.98.39-.56,0-1.15-.04-1.72-.08-.53-.03-1.02-.07-1.47-.07-3.25,0-7.71-1.56-12.58-4.38-.9-.52-1.93-.8-2.97-.8-2.49,0-4.74,1.56-5.61,3.88l-14.58,38.88-.44,1.17,1.07.64c12.39,7.43,28.06,11.87,41.91,11.87,16.38,0,28.24-3.78,38.46-12.25,9.44-7.83,17.72-19.82,27.68-40.1l80.14-165.57c.91-1.87.79-4.04-.32-5.8-1.1-1.76-3-2.81-5.08-2.81h0Z"/>
    </g>
  </g>
  <g>
    <g>
      <path class="cls-3" d="m66.56,351.99c-1.75,0-3.38-.78-4.48-2.14-1.1-1.36-1.51-3.12-1.14-4.83l47.67-219.53h57.08c1.75,0,3.38.78,4.48,2.14,1.1,1.36,1.51,3.12,1.14,4.83l-47.67,219.53h-57.08Z"/>
      <path class="cls-4" d="m165.69,126.24c3.19,0,5.56,2.94,4.89,6.06l-47.54,218.94h-56.48c-3.19,0-5.56-2.94-4.89-6.06l47.54-218.94h56.48m0-1.5h-57.69l-.26,1.18-47.54,218.94c-.42,1.93.05,3.92,1.29,5.46,1.24,1.54,3.08,2.42,5.06,2.42h57.69l.26-1.18,47.54-218.94c.42-1.93-.05-3.92-1.29-5.46-1.24-1.54-3.08-2.42-5.06-2.42h0Z"/>
    </g>
    <g>
      <path class="cls-3" d="m165.51,351.99c-2.76,0-5.06-2.16-5.24-4.92l-11.26-176.58h59.43c1.43,0,2.77.57,3.77,1.6,1,1.03,1.52,2.39,1.48,3.82l-2.67,83.56,35.66-88.98h66.31l-89.93,181.5h-57.55Z"/>
      <path class="cls-4" d="m311.78,171.24l-89.18,180h-57.09c-2.37,0-4.34-1.84-4.49-4.21l-11.21-175.79h58.63c2.54,0,4.58,2.1,4.5,4.64l-2.8,87.81,37.05-92.46h64.59m2.42-1.5h-68.02l-.38.94-33.89,84.56,2.53-79.32c.05-1.64-.55-3.19-1.69-4.37-1.14-1.18-2.67-1.83-4.31-1.83h-60.23l.1,1.6,11.21,175.79c.2,3.15,2.83,5.62,5.99,5.62h58.02l.41-.83,89.18-180,1.07-2.17h0Z"/>
    </g>
    <g>
      <path class="cls-3" d="m314.06,395.51c-13.72,0-29.25-4.4-41.53-11.76l-.54-.32,14.8-39.47c.76-2.03,2.73-3.39,4.9-3.39.91,0,1.81.24,2.61.71,6.38,3.7,10.56,4.48,12.95,4.48.41,0,.9.03,1.42.07.56.04,1.17.08,1.77.08h0c1.29,0,2.11-.2,2.52-.61.24-.24.35-.58.35-1.05l-11.06-173.75h56.94c1.56,0,3.01.61,4.1,1.72,1.09,1.11,1.67,2.58,1.65,4.13l-1.46,82.81,35.28-88.66h56.18c1.82,0,3.48.92,4.45,2.46.97,1.54,1.07,3.44.28,5.08l-80.13,165.56c-16.92,34.44-31.69,51.93-65.47,51.93Z"/>
      <path class="cls-4" d="m454.94,171.24c3.32,0,5.5,3.47,4.05,6.46l-80.13,165.56c-18.14,36.93-33.04,51.51-64.79,51.51-12.63,0-28.18-3.88-41.14-11.66l14.58-38.88c.68-1.82,2.41-2.91,4.2-2.91.76,0,1.52.19,2.23.6,5.44,3.16,9.99,4.58,13.32,4.58.86,0,2.05.14,3.19.14,1.87,0,3.63-.38,3.61-2.41l-11.01-172.99h56.14c2.8,0,5.05,2.29,5,5.09l-1.53,86.92,36.61-92h55.67m0-1.5h-56.69l-.38.95-33.57,84.37,1.39-78.7c.03-1.76-.63-3.42-1.86-4.67-1.23-1.25-2.88-1.94-4.64-1.94h-57.74l.1,1.6,11.01,172.94c0,.23-.05.39-.13.48-.12.12-.54.39-1.98.39-.56,0-1.15-.04-1.72-.08-.53-.03-1.02-.07-1.47-.07-3.24,0-7.71-1.55-12.57-4.38-.91-.53-1.94-.81-2.98-.81-2.48,0-4.73,1.56-5.6,3.88l-14.58,38.88-.44,1.17,1.07.64c12.39,7.43,28.06,11.87,41.91,11.87,16.38,0,28.24-3.78,38.46-12.25,9.44-7.83,17.72-19.82,27.68-40.1l80.14-165.57c.91-1.87.79-4.04-.32-5.8-1.1-1.76-3-2.81-5.08-2.81h0Z"/>
    </g>
  </g>
  <g>
    <g>
      <path class="cls-2" d="m48.56,333.99c-1.75,0-3.38-.78-4.48-2.14-1.1-1.36-1.51-3.12-1.14-4.83l47.67-219.53h57.08c1.75,0,3.38.78,4.48,2.14,1.1,1.36,1.51,3.12,1.14,4.83l-47.67,219.53h-57.08Z"/>
      <path class="cls-4" d="m147.69,108.24c3.19,0,5.56,2.94,4.89,6.06l-47.54,218.94h-56.48c-3.19,0-5.56-2.94-4.89-6.06l47.54-218.94h56.48m0-1.5h-57.69l-.26,1.18-47.54,218.94c-.42,1.93.05,3.92,1.29,5.46,1.24,1.54,3.08,2.42,5.06,2.42h57.69l.26-1.18,47.54-218.94c.42-1.93-.05-3.92-1.29-5.46-1.24-1.54-3.08-2.42-5.06-2.42h0Z"/>
    </g>
    <g>
      <path class="cls-2" d="m147.51,333.99c-2.76,0-5.06-2.16-5.24-4.92l-11.26-176.58h59.43c1.43,0,2.77.57,3.77,1.6,1,1.03,1.52,2.39,1.48,3.82l-2.67,83.56,35.66-88.98h66.31l-89.93,181.5h-57.55Z"/>
      <path class="cls-4" d="m293.78,153.24l-89.18,180h-57.09c-2.37,0-4.34-1.84-4.49-4.21l-11.21-175.79h58.63c2.54,0,4.58,2.1,4.5,4.64l-2.8,87.81,37.05-92.46h64.59m2.42-1.5h-68.02l-.38.94-33.89,84.56,2.53-79.32c.05-1.64-.55-3.19-1.69-4.37-1.14-1.18-2.67-1.83-4.31-1.83h-60.23l.1,1.6,11.21,175.79c.2,3.15,2.83,5.62,5.99,5.62h58.02l.41-.83,89.18-180,1.07-2.17h0Z"/>
    </g>
    <g>
      <path class="cls-2" d="m296.06,377.51c-13.72,0-29.25-4.4-41.53-11.76l-.54-.32,14.8-39.47c.76-2.03,2.73-3.39,4.91-3.39.91,0,1.8.24,2.59.7,6.38,3.7,10.56,4.48,12.95,4.48.41,0,.9.03,1.42.07.56.04,1.17.08,1.77.08h0c1.29,0,2.11-.2,2.52-.61.24-.24.35-.58.35-1.05l-11.06-173.75h57.45c1.42,0,2.75.56,3.75,1.57,1,1.01,1.53,2.35,1.5,3.77l-1.47,83.32,35.28-88.66h56.18c1.82,0,3.48.92,4.45,2.46.97,1.54,1.07,3.44.28,5.08l-80.13,165.56c-16.92,34.44-31.69,51.93-65.47,51.93Z"/>
      <path class="cls-4" d="m436.94,153.24c3.32,0,5.5,3.47,4.05,6.46l-80.13,165.56c-18.14,36.93-33.04,51.51-64.79,51.51-12.63,0-28.18-3.88-41.14-11.66l14.58-38.88c.68-1.82,2.41-2.91,4.21-2.91.75,0,1.51.19,2.22.6,5.45,3.16,10,4.58,13.33,4.58.86,0,2.05.14,3.19.14,1.87,0,3.63-.38,3.61-2.41l-11.01-172.99h56.65c2.52,0,4.54,2.06,4.5,4.58l-1.54,87.42,36.61-92h55.67m0-1.5h-56.69l-.38.95-33.57,84.37,1.4-79.21c.03-1.62-.58-3.15-1.72-4.31-1.14-1.16-2.66-1.79-4.28-1.79h-58.25l.1,1.6,11.01,172.94c0,.23-.05.39-.13.48-.12.12-.54.39-1.98.39-.56,0-1.15-.04-1.72-.08-.53-.03-1.02-.07-1.47-.07-3.25,0-7.71-1.56-12.58-4.38-.9-.52-1.93-.8-2.97-.8-2.49,0-4.74,1.56-5.61,3.88l-14.58,38.88-.44,1.17,1.07.64c12.39,7.43,28.06,11.87,41.91,11.87,16.38,0,28.24-3.78,38.46-12.25,9.44-7.83,17.72-19.82,27.68-40.1l80.14-165.57c.91-1.87.79-4.04-.32-5.8-1.1-1.76-3-2.81-5.08-2.81h0Z"/>
    </g>
  </g>
</svg>