<?xml version="1.0" encoding="UTF-8"?>
<svg id="Layer_2" data-name="Layer 2" xmlns="http://www.w3.org/2000/svg" viewBox="0 0 472.03 390">
  <defs>
    <style>
      .cls-1 {
        stroke-width: 0px;
      }
    </style>
  </defs>
  <g id="Layer_1-2" data-name="Layer 1">
    <path class="cls-1" d="m381.69,245.58c-1.66-.25-3.32-.51-4.98-.76-7.07-23.93-13.8-47.96-21.31-71.75-8.46-26.81-30.15-42.34-55.65-42.74-12.82-.2-14.48,4.99-11.33,15.32,7.08,23.3,14.23,46.59,21.03,69.97,11.68,40.18,11.55,40.57,53.44,43.72,11.07.83,14.13,4.48,10.39,14.64-10.52,28.58-24.02,55.26-47.08,76.1-22.34,20.19-48.59,27.14-77.84,22.09-12.16-2.1-28.29-2.59-9.43-21.52,13.26-13.3,10.84-30.7-2.65-44.4-12.86-13.06-27.89-13.7-43.06-3.96-18,11.55-18.84,37.9-2.16,56.59,36.22,40.59,105.21,41.64,147.51,2.22,27.12-25.27,42.59-57.46,53.42-92.05,12.41-39.64,24.13-79.51,35.34-119.5,1.52-5.44,9.69-14.18-.69-18.04-10.62-3.94-12.33,5.6-14.66,13.5-9.89,33.58-20.16,67.06-30.29,100.57Zm-160.2-.75c-1.76-.14-3.52-.28-5.29-.42-7.06-23.81-13.64-47.78-21.31-71.39-8.9-27.4-29.55-42.33-55.5-42.54-10.94-.09-15.83,1.49-11.42,14.32,7.2,20.95,12.47,42.55,18.8,63.8,16.16,54.22,16.19,53.84,74.04,51.27,10.72-.48,15.23-4.71,17.83-13.95,5.8-20.66,11.46-41.38,17.98-61.82,13.87-43.46,22.13-89.18,51.27-126.55,23.98-30.76,54.37-46.27,93.69-39.54,10.92,1.87,30.3,1.79,10.01,21.23-10.77,10.32-10.33,24.98-2.78,37.9,7.55,12.93,19.65,19.07,34.49,16.49,14.7-2.55,24.59-12.11,27.85-26.62,3.7-16.49-4.73-29.09-16.03-39.97-40.8-39.32-109.54-35.24-150.32,8.98-26.46,28.69-40.39,63.8-51.14,100.55-10.57,36.13-21.44,72.18-32.18,108.26Zm-173.55,14.71s0-.05,0-.07c12.91,0,25.82.12,38.73-.07,4.18-.06,8.97-.02,9.13-6.29.12-4.31-2.29-7.05-6.23-7.25-15.09-.77-10.34-10.22-7.99-18.2,11.94-40.49,24.21-80.89,36.02-121.42,2.34-8.02,4.17-15.4,14.72-15.06,5.17.16,7.95-2.4,7.46-7.88-.4-4.52-3.57-6.13-7.31-6.15-27.24-.11-54.48-.13-81.72.12-3.69.03-6.68,2.38-7.09,6.69-.43,4.51,2.13,7.03,6.13,6.99,15.19-.14,11.21,9.4,8.81,17.53-11.97,40.47-24.29,80.84-36.23,121.32-2.3,7.79-3.57,15.56-14.22,15.7-4.66.06-8.44,2.24-8.14,7.78.43,7.94,6.91,5.98,11.34,6.12,12.18.38,24.38.13,36.58.13Z"/>
  </g>
</svg>